<?xml version="1.0" encoding="UTF-8"?> <svg xmlns="http://www.w3.org/2000/svg" width="164" height="49" viewBox="0 0 164 49" fill="none"> <path d="M159.516 17.0069C159.516 15.7887 160.383 14.9453 161.684 14.9453C162.985 14.9453 163.852 15.7887 163.852 17.0069C163.852 18.1782 162.985 19.0216 161.684 19.0216C160.383 19.0216 159.516 18.1782 159.516 17.0069ZM161.636 18.6467C162.696 18.6467 163.37 17.9908 163.37 17.0069C163.37 16.0229 162.696 15.367 161.636 15.367C160.576 15.367 159.901 16.0229 159.901 17.0069C159.901 17.9908 160.624 18.6467 161.636 18.6467ZM160.961 15.9761H161.732C162.166 15.9761 162.455 16.2572 162.455 16.632C162.455 16.9132 162.31 17.1474 162.021 17.2411L162.551 18.0377H162.166L161.684 17.288H161.298V18.0377H160.961V15.9761ZM161.732 16.96C161.973 16.96 162.166 16.8195 162.166 16.5852C162.166 16.3509 161.973 16.2572 161.732 16.2572H161.298V16.96H161.732Z" fill="white"></path> <path d="M163.723 23.4453H0V28.988H163.723V23.4453Z" fill="#F50D24"></path> <path d="M97.2891 0V3.69681H105.358V18.8215H109.903V3.69681H118.084V0H97.2891Z" fill="white"></path> <path d="M163.726 0H142.133V3.69681H150.656V18.8215H155.202V3.69681H163.726V0Z" fill="white"></path> <path d="M120.898 0V18.8215H139.546V15.1247H125.444V11.2592H138.523V7.56235H125.444V3.69681H139.546V0H120.898Z" fill="white"></path> <path d="M89.9628 0L77.819 13.5089V0H73.2734V18.8215H78.0491L90.1877 5.30745V18.8215H94.7333V0H89.9628Z" fill="white"></path> <path d="M20.0947 0H0V18.8215H4.65808V3.69681H15.4366V18.8215H20.0998V0H20.0947Z" fill="white"></path> <path d="M64.2594 0.00511315L49.6562 0V18.8215H54.0894V3.58432H63.4822C64.9548 3.58943 66.2535 4.54559 66.2535 6.41189C66.2535 8.15547 64.919 9.04005 63.4822 9.04005L63.2879 9.05028H55.5006L57.4334 12.6295H64.2594C68.1761 12.6295 70.794 9.761 70.794 6.41189C70.794 3.06278 68.2221 0.00511315 64.2594 0.00511315Z" fill="white"></path> <path d="M32.2657 0L22.3359 18.8164H27.0298L29.3665 14.4344H40.0428L42.63 18.8164H47.3239L37.159 0H32.2606H32.2657ZM30.7062 11.2643L34.7404 3.75305L38.8616 11.2643H30.7113H30.7062Z" fill="white"></path> <path d="M6.27384 45.2411V48.2476H4.89329V46.7034H1.3959V48.2476H0V45.2411H0.260776C0.470415 45.195 0.634026 45.0826 0.746516 44.9087C0.859005 44.7297 0.915253 44.4741 0.925479 44.1366C1.00729 41.9431 1.06354 39.6064 1.0891 37.1367H5.60913V45.2411H6.27384ZM2.07084 45.2411H4.03428V38.5991H2.47476C2.41852 41.1301 2.36739 42.9913 2.32137 44.1775C2.31115 44.6428 2.22934 44.9956 2.07084 45.2411Z" fill="white"></path> <path d="M12.9894 45.2411V46.7034H9.0625V37.1367H12.9434V38.5991H10.6374V41.0994H12.8207V42.5209H10.6374V45.2411H12.9843H12.9894Z" fill="white"></path> <path d="M21.0451 43.3287V44.423C21.0451 45.195 20.8508 45.7728 20.4571 46.1461C20.0634 46.5193 19.4754 46.7085 18.6829 46.7085H16.0547V37.1367H18.6368C19.4038 37.1367 19.9611 37.3157 20.3242 37.6685C20.6821 38.0213 20.8611 38.5786 20.8611 39.3354V40.2506C20.8611 40.9869 20.5543 41.4778 19.9356 41.713C20.6719 41.9482 21.04 42.4851 21.04 43.3236L21.0451 43.3287ZM19.1328 38.7525C19.0101 38.6349 18.8107 38.5735 18.5448 38.5735H17.6346V41.1045H18.5192C18.7851 41.1045 18.9845 41.0432 19.1226 40.9204C19.2555 40.7977 19.322 40.6034 19.322 40.3376V39.3405C19.322 39.0695 19.2606 38.8701 19.1379 38.7525H19.1328ZM19.4294 43.2469C19.4294 42.7101 19.1379 42.4391 18.5601 42.4391H17.6346V45.2666H18.5857C18.872 45.2666 19.0817 45.2002 19.2197 45.0672C19.3578 44.9343 19.4294 44.7195 19.4294 44.4178V43.2418V43.2469Z" fill="white"></path> <path d="M27.9972 45.2411V46.7034H24.0703V37.1367H27.9512V38.5991H25.6452V41.0994H27.8285V42.5209H25.6452V45.2411H27.9921H27.9972Z" fill="white"></path> <path d="M35.9589 37.1367V46.7034H34.384V38.5991H32.8654C32.8398 39.9132 32.7887 41.7539 32.712 44.1213C32.6864 45.0212 32.4973 45.6808 32.1444 46.095C31.7968 46.5091 31.2087 46.7188 30.3906 46.7188V45.149C30.6872 45.149 30.9019 45.0621 31.0451 44.8883C31.1883 44.7144 31.2701 44.4332 31.2854 44.0395C31.3672 41.8153 31.4235 39.5143 31.4491 37.1367H35.9537H35.9589Z" fill="white"></path> <path d="M39.1328 39.7458C39.1328 38.7896 39.3629 38.0942 39.8231 37.6545C40.2833 37.2148 40.9224 37 41.7456 37C42.5688 37 43.1927 37.2199 43.6528 37.6545C44.113 38.0942 44.3431 38.7896 44.3431 39.7458V44.0919C44.3431 45.0481 44.113 45.7435 43.6528 46.1832C43.1927 46.6229 42.5586 46.8377 41.7456 46.8377C40.9326 46.8377 40.2833 46.6178 39.8231 46.1832C39.3629 45.7435 39.1328 45.0481 39.1328 44.0919V39.7458ZM41.7456 45.4316C42.4001 45.4316 42.7274 45.0225 42.7274 44.1993V39.6333C42.7274 38.8152 42.4001 38.401 41.7456 38.401C41.0911 38.401 40.7486 38.8101 40.7486 39.6333V44.1993C40.7486 45.0174 41.0809 45.4316 41.7456 45.4316Z" fill="white"></path> <path d="M52.5241 37.1367V46.7034H50.9493V38.5991H49.0983V46.7034H47.5234V37.1367H52.5241Z" fill="white"></path> <path d="M62.4854 37.1367V46.7034H61.0333V39.8825L59.6119 46.7034H58.6864L57.2087 39.995V46.7034H55.8281V37.1367H57.9143L59.1977 43.4361L60.3584 37.1367H62.4854Z" fill="white"></path> <path d="M69.716 45.2411V46.7034H65.7891V37.1367H69.6699V38.5991H67.3639V41.0994H69.5472V42.5209H67.3639V45.2411H69.7108H69.716Z" fill="white"></path> <path d="M77.8126 37.1367V46.7034H76.2377V42.5362H74.3561V46.7034H72.7812V37.1367H74.3561V41.0738H76.2377V37.1367H77.8126Z" fill="white"></path> <path d="M85.513 38.5991H83.9382V46.7034H82.348V38.5991H80.7578V37.1367H85.513V38.5991Z" fill="white"></path> </svg> 