<?xml version="1.0" encoding="UTF-8"?> <svg xmlns="http://www.w3.org/2000/svg" width="185" height="21" viewBox="0 0 185 21" fill="none"> <path d="M115.164 16.6445H0V20.58H115.164V16.6445Z" fill="#F50D24"></path> <path d="M68.4345 0V2.62485H74.1099V13.3639H77.3073V2.62485H83.0619V0H68.4345Z" fill="white"></path> <path d="M115.164 0H99.9756V2.62485H105.971V13.3639H109.169V2.62485H115.164V0Z" fill="white"></path> <path d="M85.0407 0V13.3639H98.1576V10.739H88.2381V7.99436H97.4383V5.36951H88.2381V2.62485H98.1576V0H85.0407Z" fill="white"></path> <path d="M63.2788 0L54.7368 9.59178V0H51.5394V13.3639H54.8987L63.437 3.76846V13.3639H66.6344V0H63.2788Z" fill="white"></path> <path d="M14.1349 0H0.000183105V13.3639H3.2767V2.62485H10.8584V13.3639H14.1385V0H14.1349Z" fill="white"></path> <path d="M45.1953 0.0036305L34.9234 0V13.3639H38.0416V2.54498H44.6486C45.6844 2.54861 46.598 3.22751 46.598 4.55265C46.598 5.79065 45.6593 6.41872 44.6486 6.41872L44.5119 6.42598H39.0343L40.3938 8.96733H45.1953C47.9503 8.96733 49.7918 6.93062 49.7918 4.55265C49.7918 2.17467 47.9827 0.0036305 45.1953 0.0036305Z" fill="white"></path> <path d="M22.6982 0L15.7136 13.3602H19.0153L20.6589 10.2489H28.1686L29.9885 13.3602H33.2902L26.1402 0H22.6946H22.6982ZM21.6012 7.99799L24.4389 2.66479L27.3378 7.99799H21.6048H21.6012Z" fill="white"></path> <path d="M129.264 12.3598V14.4945H128.293V13.3981H125.832V14.4945H124.851V12.3598H125.034C125.181 12.3271 125.297 12.2473 125.376 12.1238C125.455 11.9968 125.494 11.8152 125.502 11.5756C125.559 10.0181 125.599 8.359 125.617 6.60547H128.796V12.3598H129.264ZM126.307 12.3598H127.688V7.64379H126.591C126.552 9.44089 126.516 10.7624 126.483 11.6047C126.476 11.935 126.419 12.1855 126.307 12.3598Z" fill="white"></path> <path d="M133.987 12.3598V13.3981H131.224V6.60547H133.954V7.64379H132.332V9.41911H133.868V10.4284H132.332V12.3598H133.983H133.987Z" fill="white"></path> <path d="M139.652 11.002V11.7789C139.652 12.3271 139.515 12.7374 139.238 13.0024C138.961 13.2674 138.548 13.4018 137.99 13.4018H136.142V6.60547H137.958C138.497 6.60547 138.889 6.73254 139.145 6.98304C139.397 7.23354 139.522 7.62927 139.522 8.16658V8.81644C139.522 9.33924 139.307 9.68776 138.871 9.85477C139.389 10.0218 139.648 10.403 139.648 10.9984L139.652 11.002ZM138.307 7.75271C138.22 7.66921 138.08 7.62564 137.893 7.62564H137.253V9.42274H137.875C138.062 9.42274 138.202 9.37917 138.3 9.29204C138.393 9.20491 138.44 9.06695 138.44 8.87816V8.17021C138.44 7.9778 138.397 7.83621 138.31 7.75271H138.307ZM138.515 10.9439C138.515 10.5627 138.31 10.3703 137.904 10.3703H137.253V12.378H137.922C138.123 12.378 138.271 12.3308 138.368 12.2364C138.465 12.142 138.515 11.9895 138.515 11.7753V10.9403V10.9439Z" fill="white"></path> <path d="M144.542 12.3598V13.3981H141.78V6.60547H144.51V7.64379H142.888V9.41911H144.423V10.4284H142.888V12.3598H144.538H144.542Z" fill="white"></path> <path d="M150.142 6.60547V13.3981H149.034V7.64379H147.966C147.948 8.57683 147.912 9.88381 147.858 11.5647C147.84 12.2037 147.707 12.672 147.459 12.9661C147.214 13.2602 146.801 13.409 146.225 13.409V12.2945C146.434 12.2945 146.585 12.2327 146.686 12.1093C146.786 11.9859 146.844 11.7862 146.855 11.5066C146.912 9.92738 146.952 8.29365 146.97 6.60547H150.138H150.142Z" fill="white"></path> <path d="M152.378 8.45349C152.378 7.77458 152.539 7.28083 152.863 6.96861C153.187 6.65639 153.636 6.50391 154.215 6.50391C154.795 6.50391 155.233 6.66002 155.557 6.96861C155.881 7.28083 156.043 7.77458 156.043 8.45349V11.5394C156.043 12.2183 155.881 12.7121 155.557 13.0243C155.233 13.3365 154.787 13.489 154.215 13.489C153.644 13.489 153.187 13.3329 152.863 13.0243C152.539 12.7121 152.378 12.2183 152.378 11.5394V8.45349ZM154.215 12.4906C154.676 12.4906 154.906 12.2002 154.906 11.6157V8.37361C154.906 7.79273 154.676 7.49866 154.215 7.49866C153.755 7.49866 153.514 7.7891 153.514 8.37361V11.6157C153.514 12.1965 153.748 12.4906 154.215 12.4906Z" fill="white"></path> <path d="M161.796 6.60547V13.3981H160.689V7.64379H159.387V13.3981H158.279V6.60547H161.796Z" fill="white"></path> <path d="M168.803 6.60547V13.3981H167.782V8.55505L166.782 13.3981H166.131L165.091 8.63492V13.3981H164.12V6.60547H165.588L166.491 11.0782L167.307 6.60547H168.803Z" fill="white"></path> <path d="M173.889 12.3598V13.3981H171.127V6.60547H173.857V7.64379H172.235V9.41911H173.77V10.4284H172.235V12.3598H173.886H173.889Z" fill="white"></path> <path d="M179.584 6.60547V13.3981H178.476V10.4393H177.153V13.3981H176.045V6.60547H177.153V9.40095H178.476V6.60547H179.584Z" fill="white"></path> <path d="M185 7.64379H183.892V13.3981H182.774V7.64379H181.655V6.60547H185V7.64379Z" fill="white"></path> </svg> 